# xmcd
#
# Track frame offsets:
#	150
#	12930
#	28205
#	42047
#	59370
#	72065
#	87825
#	105355
#	117445
#	128447
#	140732
#	154667
#	167942
#	183555
#	194845
#	204410
#
# Disc length: 2846 seconds
#
# Revision: 1
# Processed by: cddbd v1.5.1PL0 Copyright (c) Steve Scherf et al.
# Submitted via: EasyCDDAExtractor 7.0.6.1
#
DISCID=de0b1c10
DTITLE=Hawking Brothers The - The Hawking Brothers 
DYEAR=1900
DGENRE=Country
TTITLE0=Catfish John
TTITLE1=Realase Me
TTITLE2=Mama tried
TTITLE3=Me And Bobby McGee
TTITLE4=Someone Told My Story
TTITLE5=Where Has All The Love Gone
TTITLE6=I Can't Stop Loving You
TTITLE7=Restless Soul
TTITLE8=A Good Love Is Like A good Song
TTITLE9=Swinging Doors
TTITLE10=Linda Darling
TTITLE11=Night Runners
TTITLE12=Bringing Mary Home
TTITLE13=Working Man Blues
TTITLE14=Yakity Axe
TTITLE15=Too Many Tears
EXTD=
EXTT0=
EXTT1=
EXTT2=
EXTT3=
EXTT4=
EXTT5=
EXTT6=
EXTT7=
EXTT8=
EXTT9=
EXTT10=
EXTT11=
EXTT12=
EXTT13=
EXTT14=
EXTT15=
PLAYORDER=
